<?xml version="1.0" encoding="UTF-8"?>
<svg xmlns="http://www.w3.org/2000/svg" viewBox="0 0 616 450" width="616" height="450">
  <!-- Plasma Energy Generator (START / PLAYER) — Sprite Sheet · IDLE / WALK / ATTACK / TAKE DAMAGE / DEATH -->
  <defs><style>.lbl{font:bold 8px monospace;fill:#94a3b8}.hdr{font:bold 12px monospace;fill:#fbbf24}.sub{font:bold 8px monospace;fill:#64748b}</style></defs>
  <rect width="616" height="450" fill="#1a2410"/>
  <rect width="616" height="34" fill="#0f172a" opacity="0.85"/>
  <text x="10" y="18" class="hdr">PLASMA ENERGY GENERATOR</text>
  <text x="10" y="31" class="sub">START / PLAYER · DAYTIME · GENERATOR</text>
  <rect x="84" y="48" width="516" height="72" fill="#ffffff" opacity="0.02"/>
  <text x="8" y="87" class="lbl">IDLE (6)</text>
  <rect x="92" y="48" width="60" height="72" fill="none" stroke="#334155" stroke-width="0.5" opacity="0.5"/>
  <g transform="translate(92 48)"><g opacity="1" transform="rotate(0 32 70) translate(0 0)"><polygon points="20,70 24,44 40,44 44,70" fill="#33550a" /><rect x="23" y="40" width="18" height="6" fill="#4d7c0f" /><rect x="25" y="24" width="14" height="18" rx="3" fill="#9ca3af" /><circle cx="32" cy="20" r="9" fill="#f59e0b" opacity="0.75"/><circle cx="32" cy="20" r="5" fill="#fde68a" opacity="0.85"/><rect x="21" y="28" width="3" height="8" fill="#33550a" /><rect x="40" y="28" width="3" height="8" fill="#33550a" /></g></g>
  <rect x="156" y="48" width="60" height="72" fill="none" stroke="#334155" stroke-width="0.5" opacity="0.5"/>
  <g transform="translate(156 48)"><g opacity="1" transform="rotate(0 32 70) translate(0 0)"><polygon points="20,70 24,44 40,44 44,70" fill="#33550a" /><rect x="23" y="40" width="18" height="6" fill="#4d7c0f" /><rect x="25" y="24" width="14" height="18" rx="3" fill="#9ca3af" /><circle cx="32" cy="20" r="9" fill="#f59e0b" opacity="0.93"/><circle cx="32" cy="20" r="5" fill="#fde68a" opacity="0.99"/><rect x="21" y="28" width="3" height="8" fill="#33550a" /><rect x="40" y="28" width="3" height="8" fill="#33550a" /></g></g>
  <rect x="220" y="48" width="60" height="72" fill="none" stroke="#334155" stroke-width="0.5" opacity="0.5"/>
  <g transform="translate(220 48)"><g opacity="1" transform="rotate(0 32 70) translate(0 0)"><polygon points="20,70 24,44 40,44 44,70" fill="#33550a" /><rect x="23" y="40" width="18" height="6" fill="#4d7c0f" /><rect x="25" y="24" width="14" height="18" rx="3" fill="#9ca3af" /><circle cx="32" cy="20" r="9" fill="#f59e0b" opacity="0.88"/><circle cx="32" cy="20" r="5" fill="#fde68a" opacity="0.95"/><rect x="21" y="28" width="3" height="8" fill="#33550a" /><rect x="40" y="28" width="3" height="8" fill="#33550a" /></g></g>
  <rect x="284" y="48" width="60" height="72" fill="none" stroke="#334155" stroke-width="0.5" opacity="0.5"/>
  <g transform="translate(284 48)"><g opacity="1" transform="rotate(0 32 70) translate(0 0)"><polygon points="20,70 24,44 40,44 44,70" fill="#33550a" /><rect x="23" y="40" width="18" height="6" fill="#4d7c0f" /><rect x="25" y="24" width="14" height="18" rx="3" fill="#9ca3af" /><circle cx="32" cy="20" r="9" fill="#f59e0b" opacity="0.62"/><circle cx="32" cy="20" r="5" fill="#fde68a" opacity="0.75"/><rect x="21" y="28" width="3" height="8" fill="#33550a" /><rect x="40" y="28" width="3" height="8" fill="#33550a" /></g></g>
  <rect x="348" y="48" width="60" height="72" fill="none" stroke="#334155" stroke-width="0.5" opacity="0.5"/>
  <g transform="translate(348 48)"><g opacity="1" transform="rotate(0 32 70) translate(0 0)"><polygon points="20,70 24,44 40,44 44,70" fill="#33550a" /><rect x="23" y="40" width="18" height="6" fill="#4d7c0f" /><rect x="25" y="24" width="14" height="18" rx="3" fill="#9ca3af" /><circle cx="32" cy="20" r="9" fill="#f59e0b" opacity="0.57"/><circle cx="32" cy="20" r="5" fill="#fde68a" opacity="0.71"/><rect x="21" y="28" width="3" height="8" fill="#33550a" /><rect x="40" y="28" width="3" height="8" fill="#33550a" /></g></g>
  <rect x="412" y="48" width="60" height="72" fill="none" stroke="#334155" stroke-width="0.5" opacity="0.5"/>
  <g transform="translate(412 48)"><g opacity="1" transform="rotate(0 32 70) translate(0 0)"><polygon points="20,70 24,44 40,44 44,70" fill="#33550a" /><rect x="23" y="40" width="18" height="6" fill="#4d7c0f" /><rect x="25" y="24" width="14" height="18" rx="3" fill="#9ca3af" /><circle cx="32" cy="20" r="9" fill="#f59e0b" opacity="0.75"/><circle cx="32" cy="20" r="5" fill="#fde68a" opacity="0.85"/><rect x="21" y="28" width="3" height="8" fill="#33550a" /><rect x="40" y="28" width="3" height="8" fill="#33550a" /></g></g>
  <rect x="84" y="126" width="516" height="72" fill="#ffffff" opacity="0.02"/>
  <text x="8" y="165" class="lbl">WALK (6)</text>
  <rect x="92" y="126" width="60" height="72" fill="none" stroke="#334155" stroke-width="0.5" opacity="0.5"/>
  <g transform="translate(92 126)"><g opacity="1" transform="rotate(0 32 70) translate(0 0)"><polygon points="20,70 24,44 40,44 44,70" fill="#33550a" /><rect x="23" y="40" width="18" height="6" fill="#4d7c0f" /><rect x="25" y="24" width="14" height="18" rx="3" fill="#9ca3af" /><circle cx="32" cy="20" r="9" fill="#f59e0b" opacity="0.55"/><circle cx="32" cy="20" r="5" fill="#fde68a" opacity="0.7"/><rect x="21" y="28" width="3" height="8" fill="#33550a" /><rect x="40" y="28" width="3" height="8" fill="#33550a" /></g></g>
  <rect x="156" y="126" width="60" height="72" fill="none" stroke="#334155" stroke-width="0.5" opacity="0.5"/>
  <g transform="translate(156 126)"><g opacity="1" transform="rotate(0 32 70) translate(0 0)"><polygon points="20,70 24,44 40,44 44,70" fill="#33550a" /><rect x="23" y="40" width="18" height="6" fill="#4d7c0f" /><rect x="25" y="24" width="14" height="18" rx="3" fill="#9ca3af" /><circle cx="32" cy="20" r="9" fill="#f59e0b" opacity="0.87"/><circle cx="32" cy="20" r="5" fill="#fde68a" opacity="0.94"/><rect x="21" y="28" width="3" height="8" fill="#33550a" /><rect x="40" y="28" width="3" height="8" fill="#33550a" /></g></g>
  <rect x="220" y="126" width="60" height="72" fill="none" stroke="#334155" stroke-width="0.5" opacity="0.5"/>
  <g transform="translate(220 126)"><g opacity="1" transform="rotate(0 32 70) translate(0 0)"><polygon points="20,70 24,44 40,44 44,70" fill="#33550a" /><rect x="23" y="40" width="18" height="6" fill="#4d7c0f" /><rect x="25" y="24" width="14" height="18" rx="3" fill="#9ca3af" /><circle cx="32" cy="20" r="9" fill="#f59e0b" opacity="0.85"/><circle cx="32" cy="20" r="5" fill="#fde68a" opacity="0.93"/><rect x="21" y="28" width="3" height="8" fill="#33550a" /><rect x="40" y="28" width="3" height="8" fill="#33550a" /></g></g>
  <rect x="284" y="126" width="60" height="72" fill="none" stroke="#334155" stroke-width="0.5" opacity="0.5"/>
  <g transform="translate(284 126)"><g opacity="1" transform="rotate(0 32 70) translate(0 0)"><polygon points="20,70 24,44 40,44 44,70" fill="#33550a" /><rect x="23" y="40" width="18" height="6" fill="#4d7c0f" /><rect x="25" y="24" width="14" height="18" rx="3" fill="#9ca3af" /><circle cx="32" cy="20" r="9" fill="#f59e0b" opacity="0.75"/><circle cx="32" cy="20" r="5" fill="#fde68a" opacity="0.85"/><rect x="21" y="28" width="3" height="8" fill="#33550a" /><rect x="40" y="28" width="3" height="8" fill="#33550a" /></g></g>
  <rect x="348" y="126" width="60" height="72" fill="none" stroke="#334155" stroke-width="0.5" opacity="0.5"/>
  <g transform="translate(348 126)"><g opacity="1" transform="rotate(0 32 70) translate(0 0)"><polygon points="20,70 24,44 40,44 44,70" fill="#33550a" /><rect x="23" y="40" width="18" height="6" fill="#4d7c0f" /><rect x="25" y="24" width="14" height="18" rx="3" fill="#9ca3af" /><circle cx="32" cy="20" r="9" fill="#f59e0b" opacity="0.82"/><circle cx="32" cy="20" r="5" fill="#fde68a" opacity="0.9"/><rect x="21" y="28" width="3" height="8" fill="#33550a" /><rect x="40" y="28" width="3" height="8" fill="#33550a" /></g></g>
  <rect x="412" y="126" width="60" height="72" fill="none" stroke="#334155" stroke-width="0.5" opacity="0.5"/>
  <g transform="translate(412 126)"><g opacity="1" transform="rotate(0 32 70) translate(0 0)"><polygon points="20,70 24,44 40,44 44,70" fill="#33550a" /><rect x="23" y="40" width="18" height="6" fill="#4d7c0f" /><rect x="25" y="24" width="14" height="18" rx="3" fill="#9ca3af" /><circle cx="32" cy="20" r="9" fill="#f59e0b" opacity="0.55"/><circle cx="32" cy="20" r="5" fill="#fde68a" opacity="0.7"/><rect x="21" y="28" width="3" height="8" fill="#33550a" /><rect x="40" y="28" width="3" height="8" fill="#33550a" /></g></g>
  <rect x="84" y="204" width="516" height="72" fill="#ffffff" opacity="0.02"/>
  <text x="8" y="243" class="lbl">ATTACK (8)</text>
  <rect x="92" y="204" width="60" height="72" fill="none" stroke="#334155" stroke-width="0.5" opacity="0.5"/>
  <g transform="translate(92 204)"><g opacity="1" transform="rotate(0 32 70) translate(0 0)"><polygon points="20,70 24,44 40,44 44,70" fill="#33550a" /><rect x="23" y="40" width="18" height="6" fill="#4d7c0f" /><rect x="25" y="24" width="14" height="18" rx="3" fill="#9ca3af" /><circle cx="32" cy="20" r="9" fill="#f59e0b" opacity="0.75"/><circle cx="32" cy="20" r="5" fill="#fde68a" opacity="0.85"/><rect x="21" y="28" width="3" height="8" fill="#33550a" /><rect x="40" y="28" width="3" height="8" fill="#33550a" /></g></g>
  <rect x="156" y="204" width="60" height="72" fill="none" stroke="#334155" stroke-width="0.5" opacity="0.5"/>
  <g transform="translate(156 204)"><g opacity="1" transform="rotate(0 32 70) translate(0 0)"><polygon points="20,70 24,44 40,44 44,70" fill="#33550a" /><rect x="23" y="40" width="18" height="6" fill="#4d7c0f" /><rect x="25" y="24" width="14" height="18" rx="3" fill="#9ca3af" /><circle cx="32" cy="20" r="9" fill="#f59e0b" opacity="0.75"/><circle cx="32" cy="20" r="5" fill="#fde68a" opacity="0.85"/><rect x="21" y="28" width="3" height="8" fill="#33550a" /><rect x="40" y="28" width="3" height="8" fill="#33550a" /></g></g>
  <rect x="220" y="204" width="60" height="72" fill="none" stroke="#334155" stroke-width="0.5" opacity="0.5"/>
  <g transform="translate(220 204)"><g opacity="1" transform="rotate(0 32 70) translate(0 0)"><polygon points="20,70 24,44 40,44 44,70" fill="#33550a" /><rect x="23" y="40" width="18" height="6" fill="#4d7c0f" /><rect x="25" y="24" width="14" height="18" rx="3" fill="#9ca3af" /><circle cx="32" cy="20" r="9" fill="#f59e0b" opacity="0.75"/><circle cx="32" cy="20" r="5" fill="#fde68a" opacity="0.85"/><rect x="21" y="28" width="3" height="8" fill="#33550a" /><rect x="40" y="28" width="3" height="8" fill="#33550a" /></g></g>
  <rect x="284" y="204" width="60" height="72" fill="none" stroke="#334155" stroke-width="0.5" opacity="0.5"/>
  <g transform="translate(284 204)"><g opacity="1" transform="rotate(-0.8 32 70) translate(0 0)"><polygon points="20,70 24,44 40,44 44,70" fill="#33550a" /><rect x="23" y="40" width="18" height="6" fill="#4d7c0f" /><rect x="25" y="24" width="14" height="18" rx="3" fill="#9ca3af" /><circle cx="32" cy="20" r="9" fill="#f59e0b" opacity="0.75"/><circle cx="32" cy="20" r="5" fill="#fde68a" opacity="0.85"/><circle cx="32" cy="20" r="13" fill="none" stroke="#fde68a" stroke-width="2" opacity="0.8"/><circle cx="32" cy="20" r="17" fill="none" stroke="#f59e0b" stroke-width="1.2" opacity="0.5"/><rect x="21" y="28" width="3" height="8" fill="#33550a" /><rect x="40" y="28" width="3" height="8" fill="#33550a" /></g></g>
  <rect x="348" y="204" width="60" height="72" fill="none" stroke="#334155" stroke-width="0.5" opacity="0.5"/>
  <g transform="translate(348 204)"><g opacity="1" transform="rotate(-0.8 32 70) translate(0 0)"><polygon points="20,70 24,44 40,44 44,70" fill="#33550a" /><rect x="23" y="40" width="18" height="6" fill="#4d7c0f" /><rect x="25" y="24" width="14" height="18" rx="3" fill="#9ca3af" /><circle cx="32" cy="20" r="9" fill="#f59e0b" opacity="0.75"/><circle cx="32" cy="20" r="5" fill="#fde68a" opacity="0.85"/><circle cx="32" cy="20" r="13" fill="none" stroke="#fde68a" stroke-width="2" opacity="0.8"/><circle cx="32" cy="20" r="17" fill="none" stroke="#f59e0b" stroke-width="1.2" opacity="0.5"/><rect x="21" y="28" width="3" height="8" fill="#33550a" /><rect x="40" y="28" width="3" height="8" fill="#33550a" /></g></g>
  <rect x="412" y="204" width="60" height="72" fill="none" stroke="#334155" stroke-width="0.5" opacity="0.5"/>
  <g transform="translate(412 204)"><g opacity="1" transform="rotate(0 32 70) translate(0 0)"><polygon points="20,70 24,44 40,44 44,70" fill="#33550a" /><rect x="23" y="40" width="18" height="6" fill="#4d7c0f" /><rect x="25" y="24" width="14" height="18" rx="3" fill="#9ca3af" /><circle cx="32" cy="20" r="9" fill="#f59e0b" opacity="0.75"/><circle cx="32" cy="20" r="5" fill="#fde68a" opacity="0.85"/><rect x="21" y="28" width="3" height="8" fill="#33550a" /><rect x="40" y="28" width="3" height="8" fill="#33550a" /></g></g>
  <rect x="476" y="204" width="60" height="72" fill="none" stroke="#334155" stroke-width="0.5" opacity="0.5"/>
  <g transform="translate(476 204)"><g opacity="1" transform="rotate(0 32 70) translate(0 0)"><polygon points="20,70 24,44 40,44 44,70" fill="#33550a" /><rect x="23" y="40" width="18" height="6" fill="#4d7c0f" /><rect x="25" y="24" width="14" height="18" rx="3" fill="#9ca3af" /><circle cx="32" cy="20" r="9" fill="#f59e0b" opacity="0.75"/><circle cx="32" cy="20" r="5" fill="#fde68a" opacity="0.85"/><rect x="21" y="28" width="3" height="8" fill="#33550a" /><rect x="40" y="28" width="3" height="8" fill="#33550a" /></g></g>
  <rect x="540" y="204" width="60" height="72" fill="none" stroke="#334155" stroke-width="0.5" opacity="0.5"/>
  <g transform="translate(540 204)"><g opacity="1" transform="rotate(0 32 70) translate(0 0)"><polygon points="20,70 24,44 40,44 44,70" fill="#33550a" /><rect x="23" y="40" width="18" height="6" fill="#4d7c0f" /><rect x="25" y="24" width="14" height="18" rx="3" fill="#9ca3af" /><circle cx="32" cy="20" r="9" fill="#f59e0b" opacity="0.75"/><circle cx="32" cy="20" r="5" fill="#fde68a" opacity="0.85"/><rect x="21" y="28" width="3" height="8" fill="#33550a" /><rect x="40" y="28" width="3" height="8" fill="#33550a" /></g></g>
  <rect x="84" y="282" width="516" height="72" fill="#ffffff" opacity="0.02"/>
  <text x="8" y="321" class="lbl">TAKE DAMAGE (4)</text>
  <rect x="92" y="282" width="60" height="72" fill="none" stroke="#334155" stroke-width="0.5" opacity="0.5"/>
  <g transform="translate(92 282)"><g opacity="1" transform="rotate(2.4 32 70) translate(0 0)"><polygon points="20,70 24,44 40,44 44,70" fill="#33550a" /><rect x="23" y="40" width="18" height="6" fill="#4d7c0f" /><rect x="25" y="24" width="14" height="18" rx="3" fill="#9ca3af" /><circle cx="32" cy="20" r="9" fill="#f59e0b" opacity="0.75"/><circle cx="32" cy="20" r="5" fill="#fde68a" opacity="0.85"/><rect x="21" y="28" width="3" height="8" fill="#33550a" /><rect x="40" y="28" width="3" height="8" fill="#33550a" /><rect x="19" y="12" width="26" height="58" rx="4" fill="#ef4444" opacity="0.35"/></g></g>
  <rect x="156" y="282" width="60" height="72" fill="none" stroke="#334155" stroke-width="0.5" opacity="0.5"/>
  <g transform="translate(156 282)"><g opacity="1" transform="rotate(2.93 32 70) translate(0 0)"><polygon points="20,70 24,44 40,44 44,70" fill="#33550a" /><rect x="23" y="40" width="18" height="6" fill="#4d7c0f" /><rect x="25" y="24" width="14" height="18" rx="3" fill="#9ca3af" /><circle cx="32" cy="20" r="9" fill="#f59e0b" opacity="0.75"/><circle cx="32" cy="20" r="5" fill="#fde68a" opacity="0.85"/><rect x="21" y="28" width="3" height="8" fill="#33550a" /><rect x="40" y="28" width="3" height="8" fill="#33550a" /></g></g>
  <rect x="220" y="282" width="60" height="72" fill="none" stroke="#334155" stroke-width="0.5" opacity="0.5"/>
  <g transform="translate(220 282)"><g opacity="1" transform="rotate(3.47 32 70) translate(0 0)"><polygon points="20,70 24,44 40,44 44,70" fill="#33550a" /><rect x="23" y="40" width="18" height="6" fill="#4d7c0f" /><rect x="25" y="24" width="14" height="18" rx="3" fill="#9ca3af" /><circle cx="32" cy="20" r="9" fill="#f59e0b" opacity="0.75"/><circle cx="32" cy="20" r="5" fill="#fde68a" opacity="0.85"/><rect x="21" y="28" width="3" height="8" fill="#33550a" /><rect x="40" y="28" width="3" height="8" fill="#33550a" /><rect x="19" y="12" width="26" height="58" rx="4" fill="#ef4444" opacity="0.35"/></g></g>
  <rect x="284" y="282" width="60" height="72" fill="none" stroke="#334155" stroke-width="0.5" opacity="0.5"/>
  <g transform="translate(284 282)"><g opacity="1" transform="rotate(4 32 70) translate(0 0)"><polygon points="20,70 24,44 40,44 44,70" fill="#33550a" /><rect x="23" y="40" width="18" height="6" fill="#4d7c0f" /><rect x="25" y="24" width="14" height="18" rx="3" fill="#9ca3af" /><circle cx="32" cy="20" r="9" fill="#f59e0b" opacity="0.75"/><circle cx="32" cy="20" r="5" fill="#fde68a" opacity="0.85"/><rect x="21" y="28" width="3" height="8" fill="#33550a" /><rect x="40" y="28" width="3" height="8" fill="#33550a" /></g></g>
  <rect x="84" y="360" width="516" height="72" fill="#ffffff" opacity="0.02"/>
  <text x="8" y="399" class="lbl">DEATH (6)</text>
  <rect x="92" y="360" width="60" height="72" fill="none" stroke="#334155" stroke-width="0.5" opacity="0.5"/>
  <g transform="translate(92 360)"><g opacity="1" transform="rotate(0 32 70) translate(0 0)"><polygon points="20,70 24,44 40,44 44,70" fill="#33550a" /><rect x="23" y="40" width="18" height="6" fill="#4d7c0f" /><rect x="25" y="24" width="14" height="18" rx="3" fill="#9ca3af" /><circle cx="32" cy="20" r="9" fill="#f59e0b" opacity="0.75"/><circle cx="32" cy="20" r="5" fill="#fde68a" opacity="0.85"/><rect x="21" y="28" width="3" height="8" fill="#33550a" /><rect x="40" y="28" width="3" height="8" fill="#33550a" /></g></g>
  <rect x="156" y="360" width="60" height="72" fill="none" stroke="#334155" stroke-width="0.5" opacity="0.5"/>
  <g transform="translate(156 360)"><g opacity="0.89" transform="rotate(6.24 32 70) translate(0 1.6)"><polygon points="20,70 24,44 40,44 44,70" fill="#33550a" /><rect x="23" y="40" width="18" height="6" fill="#4d7c0f" /><rect x="25" y="24" width="14" height="18" rx="3" fill="#9ca3af" /><circle cx="32" cy="20" r="9" fill="#f59e0b" opacity="0.75"/><circle cx="32" cy="20" r="5" fill="#fde68a" opacity="0.85"/><rect x="21" y="28" width="3" height="8" fill="#33550a" /><rect x="40" y="28" width="3" height="8" fill="#33550a" /></g></g>
  <rect x="220" y="360" width="60" height="72" fill="none" stroke="#334155" stroke-width="0.5" opacity="0.5"/>
  <g transform="translate(220 360)"><g opacity="0.78" transform="rotate(12.48 32 70) translate(0 3.2)"><polygon points="20,70 24,44 40,44 44,70" fill="#33550a" /><rect x="23" y="40" width="18" height="6" fill="#4d7c0f" /><rect x="25" y="24" width="14" height="18" rx="3" fill="#9ca3af" /><circle cx="32" cy="20" r="9" fill="#f59e0b" opacity="0.75"/><circle cx="32" cy="20" r="5" fill="#fde68a" opacity="0.85"/><rect x="21" y="28" width="3" height="8" fill="#33550a" /><rect x="40" y="28" width="3" height="8" fill="#33550a" /></g></g>
  <rect x="284" y="360" width="60" height="72" fill="none" stroke="#334155" stroke-width="0.5" opacity="0.5"/>
  <g transform="translate(284 360)"><g opacity="0.67" transform="rotate(18.72 32 70) translate(0 4.8)"><polygon points="20,70 24,44 40,44 44,70" fill="#33550a" /><rect x="23" y="40" width="18" height="6" fill="#4d7c0f" /><rect x="25" y="24" width="14" height="18" rx="3" fill="#9ca3af" /><circle cx="32" cy="20" r="9" fill="#f59e0b" opacity="0.75"/><circle cx="32" cy="20" r="5" fill="#fde68a" opacity="0.85"/><rect x="21" y="28" width="3" height="8" fill="#33550a" /><rect x="40" y="28" width="3" height="8" fill="#33550a" /></g></g>
  <rect x="348" y="360" width="60" height="72" fill="none" stroke="#334155" stroke-width="0.5" opacity="0.5"/>
  <g transform="translate(348 360)"><g opacity="0.56" transform="rotate(24.96 32 70) translate(0 6.4)"><polygon points="20,70 24,44 40,44 44,70" fill="#33550a" /><rect x="23" y="40" width="18" height="6" fill="#4d7c0f" /><rect x="25" y="24" width="14" height="18" rx="3" fill="#9ca3af" /><circle cx="32" cy="20" r="9" fill="#f59e0b" opacity="0.75"/><circle cx="32" cy="20" r="5" fill="#fde68a" opacity="0.85"/><rect x="21" y="28" width="3" height="8" fill="#33550a" /><rect x="40" y="28" width="3" height="8" fill="#33550a" /></g></g>
  <rect x="412" y="360" width="60" height="72" fill="none" stroke="#334155" stroke-width="0.5" opacity="0.5"/>
  <g transform="translate(412 360)"><g opacity="0.45" transform="rotate(31.2 32 70) translate(0 8)"><polygon points="20,70 24,44 40,44 44,70" fill="#33550a" /><rect x="23" y="40" width="18" height="6" fill="#4d7c0f" /><rect x="25" y="24" width="14" height="18" rx="3" fill="#9ca3af" /><circle cx="32" cy="20" r="9" fill="#f59e0b" opacity="0.75"/><circle cx="32" cy="20" r="5" fill="#fde68a" opacity="0.85"/><rect x="21" y="28" width="3" height="8" fill="#33550a" /><rect x="40" y="28" width="3" height="8" fill="#33550a" /></g></g>
</svg>